<svg width="195" height="67" viewBox="0 0 195 67" fill="none" xmlns="http://www.w3.org/2000/svg">
<path d="M111.051 51.12C110.801 51.12 110.596 50.9149 110.596 50.6654V36.1166C110.596 33.5107 110.264 31.7143 109.571 30.6276C108.872 29.5242 107.575 29.0141 105.484 29.0141C104.725 29.0141 102.923 29.0973 101.67 29.247V50.6654C101.67 50.9204 101.465 51.12 101.215 51.12H94.107C93.8519 51.12 93.6523 50.9149 93.6523 50.6654V23.7524C93.6523 23.5306 93.8131 23.3421 94.0294 23.3033C96.9014 22.7876 101.753 22.1777 105.972 22.1777C108.506 22.1777 110.668 22.5049 112.237 23.1203C113.823 23.7468 115.104 24.645 116.03 25.7817C116.956 26.9238 117.627 28.2989 118.02 29.8735C118.414 31.4426 118.614 33.2224 118.614 35.1463V50.6654C118.614 50.9204 118.409 51.12 118.159 51.12H111.057H111.051Z" fill="#0051A4"/>
<path d="M137.049 51.8749C134.515 51.8749 132.281 51.4979 130.407 50.7438C128.533 49.9953 126.958 48.953 125.727 47.65C124.496 46.3471 123.571 44.7835 122.983 42.9982C122.395 41.2128 122.096 39.2612 122.096 37.1875C122.096 34.687 122.484 32.4692 123.255 30.6007C124.02 28.7266 125.045 27.1409 126.293 25.8934C127.54 24.6459 128.999 23.6811 130.623 23.0435C132.248 22.4004 133.939 22.0732 135.652 22.0732C139.65 22.0732 142.849 23.3152 145.172 25.7603C147.495 28.2055 148.67 31.8537 148.67 36.5998C148.67 37.2153 148.626 38.0636 148.543 39.1891C148.526 39.4275 148.327 39.6105 148.088 39.6105H130.329C130.507 41.2517 131.288 42.5768 132.641 43.536C133.972 44.4841 135.669 44.9443 138.136 45.0275C138.319 45.033 138.507 45.0386 138.701 45.0386C141.069 45.0386 144.096 44.5728 146.048 44.1126C146.087 44.1071 146.12 44.1015 146.153 44.1015C146.253 44.1015 146.358 44.1348 146.436 44.2013C146.547 44.29 146.608 44.4176 146.608 44.5562V49.9343C146.608 50.1229 146.497 50.2892 146.325 50.3557C143.359 51.5478 139.101 51.8694 137.049 51.8694M140.925 34.1214C140.892 33.445 140.77 32.7741 140.576 32.131C140.176 30.8225 139.317 29.7967 138.103 29.1702C137.476 28.8486 136.689 28.6878 135.763 28.6878C134.837 28.6878 134.094 28.8431 133.451 29.1425C132.203 29.7357 131.322 30.7282 130.845 32.1032C130.612 32.763 130.44 33.4395 130.335 34.1214H140.93H140.925Z" fill="#0051A4"/>
<path d="M163.468 51.769C161.289 51.769 159.459 51.4696 158.034 50.8819C156.604 50.2886 155.445 49.4569 154.591 48.409C153.732 47.3611 153.127 46.0637 152.789 44.5611C152.451 43.0586 152.273 41.3786 152.273 39.56V17.2379C152.273 16.9883 152.479 16.7832 152.728 16.7832H159.836C160.086 16.7832 160.291 16.9883 160.291 17.2379V22.8267H169.023C169.273 22.8267 169.478 23.0319 169.478 23.2814V29.0421C169.478 29.2916 169.273 29.4967 169.023 29.4967H160.291V39.4491C160.291 41.1291 160.59 42.4875 161.178 43.4855C161.76 44.4724 162.858 44.9437 164.754 45.0158C164.981 45.0213 165.22 45.0269 165.458 45.0269C166.689 45.0269 167.959 44.916 169.123 44.7053C169.151 44.7053 169.179 44.6998 169.206 44.6998C169.312 44.6998 169.417 44.7386 169.5 44.8051C169.606 44.8938 169.667 45.0213 169.667 45.1544V50.4827C169.667 50.6823 169.533 50.8597 169.345 50.9207C167.848 51.3864 166.373 51.7745 163.468 51.7745" fill="#0051A4"/>
<path d="M73.8462 51.1201C73.5967 51.1201 73.3916 50.915 73.3916 50.6655V23.1648H63.5113C63.2618 23.1648 63.0566 22.9596 63.0566 22.7101V15.1031C63.0566 14.8536 63.2618 14.6484 63.5113 14.6484H93.2021C93.4571 14.6484 93.6567 14.8536 93.6567 15.1031V22.7101C93.6567 22.9652 93.4516 23.1648 93.2021 23.1648H83.3218V50.6655C83.3218 50.915 83.1166 51.1201 82.8671 51.1201H73.8518H73.8462Z" fill="#E60012"/>
<path d="M53.1827 53C43.6018 53 36.089 51.8634 30.5445 46.3244C26.9683 42.7482 25 37.991 25 32.9345C25 22.4942 33.4942 14 43.94 14C54.3858 14 62.88 22.4942 62.88 32.9345C62.88 37.3867 61.0947 41.534 57.8622 44.6056C58.328 44.6389 58.8713 44.6555 59.4812 44.6555C61.7545 44.6555 65.5192 44.406 68.6352 43.7019C68.6685 43.6908 68.7017 43.6908 68.735 43.6908C68.8348 43.6908 68.9402 43.7241 69.0178 43.7906C69.1231 43.8793 69.1897 44.0068 69.1897 44.1454V50.4828C69.1897 50.6769 69.0621 50.8543 68.8792 50.9153C64.5267 52.3679 56.3819 52.9945 53.1827 52.9945M43.9345 23.6918C38.8391 23.6918 34.6918 27.8391 34.6918 32.9345C34.6918 38.0299 38.8391 42.1771 43.9345 42.1771C49.0299 42.1771 53.1771 38.0299 53.1771 32.9345C53.1771 27.8391 49.0299 23.6918 43.9345 23.6918Z" fill="#E60012"/>
</svg>
